<?xml version="1.0" encoding="UTF-8" standalone="yes"?>
<svg version="1.2" baseProfile="tiny-ps" viewBox="0 0 277 277" xmlns="http://www.w3.org/2000/svg">
  <title>bimi-svg-tiny-12-ps</title>
  <g>
    <g fill="#fcf9ae" transform="matrix(.1 0 0 -.1 0 277)">
      <path d="m202 1788-12-12-2-135-2-136-3 109-4 110-11 13-11 14-26-3-26-3-5-130-6-130-2 71-2 72-14 12-15 12-23-4-23-3-3-159-3-159 22-44 22-45 39-28 39-29 53-11 53-11 49 11 49 11 36 25 35 24 24 43 24 42 7 105c4 58 10 113 14 123l7 17h-61l-20-26-21-27v-88l-14-27c-13-26-56-71-56-60 0 3 11 26 25 51l26 45-3 147-3 148-17 11-18 11-16-17-17-16 2-84 1-83-10-15-10-15v273l-16 6c-24 9-39 7-52-6zm35-366-28-17-25-50-26-50 6 40 5 40 31 28 30 27h18l17-1-28-17zm1688 282c-11-3-26-13-32-22l-13-16v-148l-22 7c-13 3-43 9-68 12l-45 5-27-11-28-11v-52l16 6c9 3 26 9 38 12l22 5 27-10 27-11v-30h-92l-29-29c-35-36-36-52-6-87l24-27 32 1c18 0 39 6 47 13l14 11 13-10 12-10 78-7 77-7 15 12 15 12v27c0 14 3 36 6 48l6 22 47 7 46 6 33 19c18 10 34 19 35 19s2-25 3-56v-57l32-28 32-29h210v-88l16-6c9-3 36-6 60-6h44l35 33 34 32 52 140 52 140 1 30 1 30-50 6-49 5-22-21c-11-12-24-28-28-36l-6-14-6 14c-4 8-18 26-31 39l-24 24-42-6c-23-4-53-6-67-6s-67 2-118 3l-93 2-21 33-20 33-29 15-29 15-93 4c-50 2-101 2-112-1zm135-144 15-10h-45v10c0 13 11 13 30 0zm456-175c7-19 14-44 14-55v-20h-14c-18 0-26 22-26 71 0 48 7 49 26 4zm-698-1c-2-9-12-23-24-30l-20-14-19 14-19 14 13 16 13 16h59l-3-16zM595 1617c-3-7-4-80-3-162l3-150 32-3 32-3 3 68 3 68 58 3 57 3v48l-57 3-58 3v70l65 5 65 5v50l-98 3-97 3-5-14zm273-93-28-15-15-29c-19-37-19-83 0-120l15-30 30-15 29-15h80l35 31 35 31 7 33 6 34-12 36-12 37-32 19-31 19h-40l-40-1-27-15zm116-76 10-28-10-27-9-28-29-10-28-10-19 24-19 23v25c0 13 5 33 11 44l10 20 37-3 37-3 9-27zm118-25 3-118 26-3 26-3 7 70c3 38 9 76 12 85l6 16 32 8 31 8 3 27 3 27h-18c-10 0-30-7-45-14l-28-15v29h-61l3-117zm180 0 3-118h60l5 85 5 85 26 3 26 3 11-13 11-14 3-74 3-75 28-3 27-3v130l10 26 10 26 28-3 27-3 5-85 5-85h60v197l-24 19-23 19h-64l-22-16-22-15-22 15-22 16h-52l-22-16-22-15v31h-61l3-117z"/>
    </g>
    <g fill="#ddaf60" transform="matrix(.1 0 0 -.1 0 277)">
      <path d="m202 1788-12-12-2-135-2-136-3 109-4 110-11 13-11 14-26-3-26-3-5-130-6-130-2 71-2 72-14 12-15 12-23-4-23-3-3-159-3-159 22-44 22-45 39-28 39-29 53-11 53-11 49 11 49 11 36 25 35 24 24 43 24 42 7 105c4 58 10 113 14 123l7 17h-61l-20-26-21-27v-88l-14-27c-13-26-56-71-56-60 0 3 11 26 25 51l26 45-3 147-3 148-17 11-18 11-16-17-17-16 2-84 1-83-10-15-10-15v273l-16 6c-24 9-39 7-52-6zm35-366-28-17-25-50-26-50 6 40 5 40 31 28 30 27h18l17-1-28-17zm1683 73v-175h80v128l71 4 71 4 24 27 24 28v101l-29 29-29 29h-212v-175zm184 83 11-18-11-17-11-18-47-3-46-3v82l46-3 47-3 11-17zm-1509 39c-3-7-4-80-3-162l3-150 32-3 32-3 3 68 3 68 58 3 57 3v48l-57 3-58 3v70l65 5 65 5v50l-98 3-97 3-5-14zm1664-66c-16-16-29-34-29-39v-10l31-7 30-7 13 17 12 17 29-4 28-3 4-12 4-12-28-6c-15-4-47-13-70-21l-41-15-11-31-11-31 13-26 12-26 30-14 29-14 43 15 43 16v-18h72l-6 23c-3 12-6 59-6 105v83l-25 24-24 25h-113l-29-29zm121-135c0-21-28-46-51-46h-20l-6 16-6 17 18 13c10 8 29 14 42 14h23v-14zm107 157c-3-4 15-59 39-122 24-62 44-121 44-130 0-24-20-41-47-41h-23v-60h41c22 0 48 4 58 9l17 10 17 38c9 21 32 83 52 138s40 110 45 123c13 31 7 39-29 40l-30 1-28-86-29-86-30 84-30 84-31 3-31 3-5-8zm-1619-49-28-15-15-29c-19-37-19-83 0-120l15-30 30-15 29-15h80l35 31 35 31 7 33 6 34-12 36-12 37-32 19-31 19h-40l-40-1-27-15zm116-76 10-28-10-27-9-28-29-10-28-10-19 24-19 23v25c0 13 5 33 11 44l10 20 37-3 37-3 9-27zm118-25 3-118 26-3 26-3 7 70c3 38 9 76 12 85l6 16 32 8 31 8 3 27 3 27h-18c-10 0-30-7-45-14l-28-15v29h-61l3-117zm180 0 3-118h60l5 85 5 85 26 3 26 3 11-13 11-14 3-74 3-75 28-3 27-3v130l10 26 10 26 28-3 27-3 5-85 5-85h60v197l-24 19-23 19h-64l-22-16-22-15-22 15-22 16h-52l-22-16-22-15v31h-61l3-117zm431 107-23-9v-53l16 6c9 3 26 9 38 12l22 5 27-10 27-11v-30h-92l-29-29c-35-36-36-52-6-87l24-27 32 1 32 1 15 12 15 12 11-11 12-12h56v169l-11 25-12 25-30 11c-36 12-93 12-124 0zm105-146c-2-9-12-23-24-30l-20-14-19 14-19 14 13 16 13 16h59l-3-16z"/>
    </g>
    <g fill="#599522" transform="matrix(.1 0 0 -.1 0 277)">
      <path d="m202 1788-12-12-2-135-2-136-3 109-4 110-11 13-11 14-26-3-26-3-5-130-6-130-2 71-2 72-14 12-15 12-23-4-23-3-3-159-3-159 22-44 22-45 39-28 39-29 53-11 53-11 49 11 49 11 36 25 35 24 24 43 24 42 7 105c4 58 10 113 14 123l7 17h-61l-20-26-21-27v-88l-14-27c-13-26-56-71-56-60 0 3 11 26 25 51l26 45-3 147-3 148-17 11-18 11-16-17-17-16 2-84 1-83-10-15-10-15v273l-16 6c-24 9-39 7-52-6zm35-366-28-17-25-50-26-50 6 40 5 40 31 28 30 27h18l17-1-28-17zm1699 241c-3-4-6-82-6-175v-168h60v128l65 4 65 4 27 20 28 21 9 32 9 31-9 31-9 32-25 19-25 18-91 5c-50 2-94 1-98-2zm164-73c11-11 20-24 20-30 0-5-9-19-20-30l-20-20h-80v100h80l20-20zm-1505 27c-3-7-4-80-3-162l3-150 32-3 32-3 3 68 3 68 58 3 57 3v48l-57 3-58 3v70l65 5 65 5v50l-98 3-97 3-5-14zm1667-70c-12-13-22-29-22-35v-12h60v9c0 5 9 13 20 16l20 6 20-6 20-6v-39l-27-6c-16-3-45-10-65-15l-38-10-10-19c-5-10-10-30-10-44v-25l22-21 22-20h72l22 16 22 15v-9c0-11 30-21 46-15l11 4-5 102-4 102-16 18-15 17h-124l-21-23zm118-137v-29l-19-11c-11-5-27-10-35-10h-15l-11 21-11 20 11 14c10 12 31 20 68 24l12 1v-30zm110 156c0-2 20-59 46-126l45-122-16-24-15-24h-50v-9c0-5 7-17 16-26l16-16 32 7c17 3 36 11 43 16 12 10 42 82 102 247l30 81h-67l-29-87-30-88-30 85-31 85-31 3c-17 2-31 1-31-2zm-1622-42-28-15-15-29c-19-37-19-83 0-120l15-30 30-15 29-15h80l35 31 35 31 7 33 6 34-12 36-12 37-32 19-31 19h-40l-40-1-27-15zm116-76 10-28-10-27-9-28-29-10-28-10-19 24-19 23v25c0 13 5 33 11 44l10 20 37-3 37-3 9-27zm118-25 3-118 26-3 26-3 7 70c3 38 9 76 12 85l6 16 32 8 31 8 3 27 3 27h-18c-10 0-30-7-45-14l-28-15v29h-61l3-117zm180 0 3-118h60l5 85 5 85 26 3 26 3 11-13 11-14 3-74 3-75 28-3 27-3v130l10 26 10 26 28-3 27-3 5-85 5-85h60v197l-24 19-23 19h-64l-22-16-22-15-22 15-22 16h-52l-22-16-22-15v31h-61l3-117zm431 107-23-9v-53l16 6c9 3 26 9 38 12l22 5 27-10 27-11v-30h-92l-29-29c-35-36-36-52-6-87l24-27 32 1 32 1 15 12 15 12 11-11c7-7 22-12 35-12h23v188l-18 22-19 23-54 3-54 4-22-10zm105-146c-2-9-12-23-24-30l-20-14-19 14-19 14 13 16 13 16h59l-3-16z"/>
    </g>
    <g fill="#db4233" transform="matrix(.1 0 0 -.1 0 277)">
      <path d="m202 1788-12-12-2-135-2-136-3 109-4 110-11 13-11 14-26-3-26-3-5-130-6-130-2 71-2 72-14 12-15 12-23-4-23-3-3-159-3-159 22-44 22-45 39-28 39-29 53-11 53-11 49 11 49 11 36 25 35 24 24 43 24 42 7 105c4 58 10 113 14 123l7 17h-61l-20-26-21-27v-88l-14-27c-13-26-56-71-56-60 0 3 11 26 25 51l26 45-3 147-3 148-17 11-18 11-16-17-17-16 2-84 1-83-10-15-10-15v273l-16 6c-24 9-39 7-52-6zm35-366-28-17-25-50-26-50 6 40 5 40 31 28 30 27h18l17-1-28-17zm1699 241c-3-4-6-82-6-175v-168h60v128l65 4 65 4 27 20 28 21 9 32 9 31-9 31-9 32-25 19-25 18-91 5c-50 2-94 1-98-2zm164-73c11-11 20-24 20-30 0-5-9-19-20-30l-20-20h-80v100h80l20-20zm-1505 27c-3-7-4-80-3-162l3-150 32-3 32-3 3 68 3 68 58 3 57 3v48l-57 3-58 3v70l65 5 65 5v50l-98 3-97 3-5-14zm1667-70c-12-13-22-29-22-35v-12h60v9c0 5 9 13 20 16l20 6 20-6 20-6v-39l-27-6c-16-3-45-10-65-15l-38-10-10-19c-5-10-10-30-10-44v-25l22-21 22-20h72l22 16 22 15v-9c0-11 30-21 46-15l11 4-5 102-4 102-16 18-15 17h-124l-21-23zm118-137v-29l-19-11c-11-5-27-10-35-10h-15l-11 21-11 20 11 14c10 12 31 20 68 24l12 1v-30zM868 1524l-28-15-15-29c-19-37-19-83 0-120l15-30 30-15 29-15h80l35 31 35 31 7 33 6 34-12 36-12 37-32 19-31 19h-40l-40-1-27-15zm116-76 10-28-10-27-9-28-29-10-28-10-19 24-19 23v25c0 13 5 33 11 44l10 20 37-3 37-3 9-27zm118-25 3-118 26-3 26-3 7 70c3 38 9 76 12 85l6 16 32 8 31 8 3 27 3 27h-18c-10 0-30-7-45-14l-28-15v29h-61l3-117zm180 0 3-118h60l5 85 5 85 26 3 26 3 11-13 11-14 3-74 3-75 28-3 27-3v130l10 26 10 26 28-3 27-3 5-85 5-85h60v197l-24 19-23 19h-64l-22-16-22-15-22 15-22 16h-52l-22-16-22-15v31h-61l3-117zm431 107-23-9v-53l16 6c9 3 26 9 38 12l22 5 27-10 27-11v-30h-92l-29-29c-35-36-36-52-6-87l24-27 32 1 32 1 15 12 15 12 11-11c7-7 22-12 35-12h23v188l-18 22-19 23-54 3-54 4-22-10zm105-146c-2-9-12-23-24-30l-20-14-19 14-19 14 13 16 13 16h59l-3-16z"/>
    </g>
    <g fill="#f02d1c" transform="matrix(.1 0 0 -.1 0 277)">
      <path d="m209 1783-14-16-1-124c-1-68-4-127-8-130-3-4-6 44-6 105v112l-26 6-25 7-10-10-10-10-3-112c-4-122-16-166-16-58v66l-21 11-21 12-14-6-14-5v-311l12-23c20-35 70-87 98-102 14-7 46-16 72-20l47-7 38 13c21 7 41 13 45 14 5 0 24 15 44 33l35 32 19 42c10 23 16 46 13 50-2 5 0 14 5 21l10 12v87l-1 86-20-7-21-8-18-34-18-34v-86l-16-25-17-25-35-15c-44-18-51-12-22 18 12 13 32 41 45 63l22 40 2 125 1 126-14 19-14 19-22-15-23-15 2-80 1-79-8-13-9-14-5 126-5 125-13 16c-16 19-24 19-41-2zm79-341 4-12h-38l-25-27c-24-27-39-54-54-98l-7-20-8 22-9 22 6 36 6 36 27 19c16 11 35 20 43 20 9 0 19 5 22 11 8 12 27 7 33-9zm1646 205c-2-7-3-80-2-162l3-150 27-3 27-3 3 63 3 63 67 5 68 5 25 27 25 27v89l-31 26-31 26h-179l-5-13zm178-63 11-24-11-25-12-25h-111l3 47 3 48 30 5c17 3 40 4 53 2l24-5 10-23zm-1508 23c-2-7-3-74-2-148l3-134 28-3 27-3v120l35 7c19 3 41 4 48 1 8-3 20-2 27 3l13 8-6 15-6 16-34-6-34-5-22 12-22 11 3 37 3 37 58 3 57 3v39H609l-5-13zm1662-58c-14-11-26-26-26-33v-13h30c17 0 30 4 30 8s9 11 20 14l20 6 20-6 20-6v-38l-42-11c-24-5-54-16-68-23l-25-13-9-27-10-27 21-28 20-27 37-3 38-3 24 16 24 15v-9c0-10 30-19 46-14l11 4-5 102-4 102-16 18-15 17h-114l-27-21zm19-119c-3-5-10-10-16-10-5 0-9 5-9 10 0 6 7 10 16 10h15l-6-10zm95-20v-30l-26-12-26-12-16 11c-9 5-18 20-20 31l-3 21 33 10c18 5 39 10 46 10l12 1v-30zm-93-62-5-13-1 19c-1 11 2 17 5 13 3-3 4-12 1-19zM894 1526l-31-14-22-30-21-30v-25c0-28 24-80 46-98l15-13h47l47-1 33 23 32 23v115l-22 20c-23 19-72 44-86 44-4-1-21-7-38-14zm68-38 27-13 5-20c3-11 6-32 6-46v-26l-17-16c-10-8-29-18-43-22l-25-6-18 13-18 14-6 42-6 43 23 24c27 28 36 30 72 13zm143 30c-2-7-4-53-2-103l2-90 28-3 27-3v140l16 15 15 16h49v42l-22-7c-31-10-59-10-86-1l-22 7-5-13zm187 4-13-9 3-93 3-94 30-6 30-7-3 77-3 77 16 17c21 21 27 20 59-5l27-21-2-31c-2-18-2-49-1-70l2-38 21 3 21 3 1 72 2 72 17 18 18 17 27-10 28-9 5-80 5-80 18-3 17-3v90l10 6c6 3 10 14 10 23v17l-11-15-11-15 6 31 5 31-23 22-22 21h-25c-13 0-37-7-52-15l-28-15-24 16-24 16-43-8c-46-8-45-8-68 0l-15 6-13-8zm426 1c-10-2-18-9-18-14v-9h99l15-16c9-8 16-20 16-25 0-10 0-10-74-31l-49-13-15-22-14-23 16-25 16-25 25-6 25-6 30 12 30 12 25-6 25-6v161l-26 24-27 25-41-1c-23-1-49-3-58-6zm90-119 22-6v-13c0-6-9-20-19-29l-19-18-24 4-23 3-3 18c-2 10-1 25 2 33l5 14h18c10 0 28-3 41-6zm-756 16v-35l5 18c2 9 2 25 0 35l-5 17v-35zm580-60v-35l5 18c2 9 2 25 0 35l-5 17v-35z"/>
    </g>
    <g fill="#a7530c" transform="matrix(.1 0 0 -.1 0 277)">
      <path d="M2266 1549c-14-11-26-26-26-33v-13h30c17 0 30 4 30 8s9 11 20 14l20 6 20-6 20-6v-38l-17-5c-10-3-37-10-59-15-23-6-47-18-54-26l-12-15h11c6 0 11 5 11 10 0 6 6 10 13 10h12l1-49 1-48-19 5-18 4-9 32-9 31-1-21-1-21 21-27 20-26h75l22 16 22 15v-9c0-11 30-21 46-15l11 4-5 102-4 102-16 18-15 17h-114l-27-21zm114-139v-30l-26-12-26-12-16 11c-9 5-18 20-20 31l-3 21 33 10c18 5 39 10 46 10l12 1v-30zm-1328 10v-35l5 18c2 9 2 25 0 35l-5 17v-35zm579 14 1-19 5 13c3 7 2 16-1 19-3 4-6-2-5-13zm1-74v-35l5 18c2 9 2 25 0 35l-5 17v-35z"/>
    </g>
  </g>
</svg>